<?xml version="1.0" encoding="utf-8"?>
<!-- Generator: Adobe Illustrator 24.2.3, SVG Export Plug-In . SVG Version: 6.00 Build 0)  -->
<svg version="1.1" id="Layer_1" xmlns="http://www.w3.org/2000/svg" xmlns:xlink="http://www.w3.org/1999/xlink" x="0px" y="0px"
	 viewBox="0 0 252.5 252.5" style="enable-background:new 0 0 252.5 252.5;" xml:space="preserve">
<style type="text/css">
	.st0{fill:#2B2B2D;}
</style>
<path class="st0" d="M96.1,142.5c-1,0-1.8,0-2.6,0c-9.6,0-19.2,0-28.7,0c-4.9,0-6.7-1.8-6.7-6.7c0-12.7,0-25.5,0-38.3
	c0-4.9,1.9-6.8,6.7-6.8c9.6,0,19.2,0,28.7,0c0.7,0,1.5,0,2.6,0c0-0.9,0-1.6,0-2.3c0-8.5,0-17,0-25.4c0-12.5,2.2-24.5,8.6-35.5
	c6.5-11.3,16-18.9,28.2-23.4c7.8-2.9,15.9-4,24.1-4c10.3,0,20.7,0,31,0c4.4,0,6.4,2,6.4,6.5c0,12,0,24,0,36c0,4.5-1.9,6.3-6.5,6.4
	c-8.5,0.1-17,0-25.4,0.4c-4.6,0.2-9,1.6-11.2,6.1c-1,2.1-1.8,4.6-1.8,6.9c-0.2,9.3-0.1,18.7-0.1,28.5c0.8,0,1.6,0,2.4,0
	c11.4,0,22.8,0,34.1,0c5.2,0,6.9,1.8,6.9,7c0,12.7,0,25.4,0,38.1c0,5.1-1.7,6.7-6.9,6.7c-11.4,0-22.8,0-34.1,0c-0.7,0-1.5,0-2.6,0
	c0,1,0,1.9,0,2.8c0,33.3,0,66.6,0,99.9c0,5.5-1.7,7.2-7.1,7.2c-13.2,0-26.4,0-39.5,0c-4.8,0-6.6-1.9-6.6-6.6c0-33.5,0-66.9,0-100.4
	C96.1,144.5,96.1,143.7,96.1,142.5z"/>
</svg>
