<?xml version="1.0" encoding="utf-8"?>
<!-- Generator: Adobe Illustrator 24.2.3, SVG Export Plug-In . SVG Version: 6.00 Build 0)  -->
<svg version="1.1" id="Layer_1" xmlns="http://www.w3.org/2000/svg" xmlns:xlink="http://www.w3.org/1999/xlink" x="0px" y="0px"
	 viewBox="0 0 252.5 252.5" style="enable-background:new 0 0 252.5 252.5;" xml:space="preserve">
<style type="text/css">
	.st0{fill:#2B2B2D;}
</style>
<path class="st0" d="M0,205.9c28.4,2.8,53.7-4.3,76.1-21.4c-2.8-0.3-5.4-0.4-8.2-1c-19.3-4.2-32.4-15.4-39.5-33.7
	c-0.6-1.4-0.6-1.4,1-1.1c6.5,1.2,15.9,0.7,21.6-1.1c-2.6-0.7-5.3-1.2-7.6-2.2c-18.6-7.6-29.8-21.2-33.1-41.2
	c-0.4-2.2-0.6-4.6-0.6-6.8c0-1.1,0.3-1.1,1.1-0.7c6.1,3.3,12.8,5.1,19.7,5.7c0.7,0,1.4,0,2.4,0C21.8,94.6,14.4,84.2,11.4,71
	s-1-25.8,5.5-37.6C45.5,66.1,81,84.3,124.4,87.2c-1-4.4-1.5-8.6-1.4-12.9c0.8-18.9,9.2-33.4,25.1-43.4c8.7-5.5,18.6-7.9,29-7.5
	c13.3,0.6,25,5.7,34.4,15.1c1,1,1.8,1.2,3.2,0.8c10.5-2.4,20.5-6.2,30-11.5c0.3-0.1,0.6-0.3,1.1-0.6c-4.2,12.3-11.6,21.5-22.2,28.4
	c10-1.1,19.6-3.7,29-7.6c-0.4,0.6-0.8,1.2-1.2,1.8c-0.4,0.6-0.8,1.2-1.2,1.8c-6.2,8.5-13.6,15.9-22.2,22.2c-0.8,0.7-1,1.4-1,2.4
	c0.7,22-3.3,43-11.9,63.1c-12.5,29.4-32,53-59.6,69.6c-15.1,9.2-31.5,15-48.9,17.9c-11.4,1.9-22.6,2.6-34.1,2.1
	c-25.8-1.2-49.5-8.7-71.4-22.3C0.7,206.3,0.4,206.2,0,205.9z"/>
</svg>
